<svg width="179" height="43" viewBox="0 0 179 43" fill="none" xmlns="http://www.w3.org/2000/svg">
<g id="Group 1171275867">
<g id="Group 1171275830">
<g id="Vector" filter="url(#filter0_d_6_1020)">
<path d="M29.983 20.32C31.4028 19.1405 32.3057 17.3691 32.3057 15.3883C32.3057 13.4077 31.4028 11.6362 29.983 10.4568C30.1457 10.3786 30.3023 10.2938 30.4515 10.2019C31.3932 9.62099 32.5048 9.28552 33.6953 9.28552C37.093 9.28552 39.8474 12.0179 39.8474 15.3883C39.8474 18.7588 37.093 21.4912 33.6953 21.4912C32.5048 21.4912 31.3932 21.1557 30.4515 20.5749C30.3023 20.483 30.1457 20.3981 29.983 20.32Z" fill="#e65f2b"/>
</g>
<g id="Vector_2" filter="url(#filter1_d_6_1020)">
<path d="M28.2742 16.3507C28.9093 14.6252 28.7983 12.6432 27.7999 10.9279C26.8016 9.21254 25.1267 8.12619 23.3027 7.80899C23.4043 7.66062 23.4971 7.50949 23.5798 7.35588C24.1027 6.38576 24.8963 5.54391 25.9273 4.95341C28.8698 3.26816 32.6324 4.26826 34.3313 7.1872C36.0301 10.1061 35.0219 13.8386 32.0794 15.5238C31.0484 16.1143 29.9166 16.3751 28.8083 16.3392C28.6328 16.3335 28.4544 16.3378 28.2742 16.3507Z" fill="#e65f2b"/>
</g>
<g id="Vector_3" filter="url(#filter2_d_6_1020)">
<path d="M24.7932 13.7588C24.4735 11.9494 23.3783 10.288 21.6492 9.29765C19.92 8.30731 17.922 8.19722 16.1825 8.82721C16.1957 8.64837 16.1999 8.47143 16.1941 8.29736C16.1579 7.19788 16.4208 6.07522 17.0161 5.05243C18.715 2.1335 22.4775 1.13339 25.4201 2.81864C28.3625 4.5039 29.3708 8.23633 27.6719 11.1553C27.0766 12.178 26.228 12.9653 25.25 13.4839C25.0952 13.566 24.9429 13.6581 24.7932 13.7588Z" fill="#e65f2b"/>
</g>
<g id="Vector_4" filter="url(#filter3_d_6_1020)">
<path d="M20.4703 13.2417C19.2813 11.8333 17.4955 10.9377 15.4988 10.9377C13.5021 10.9377 11.7163 11.8333 10.5274 13.2417C10.4486 13.0803 10.3631 12.925 10.2704 12.777C9.68485 11.8428 9.34668 10.7402 9.34668 9.55915C9.34668 6.18863 12.1011 3.4563 15.4988 3.4563C18.8965 3.4563 21.6509 6.18863 21.6509 9.55915C21.6509 10.7402 21.3127 11.8428 20.7272 12.777C20.6345 12.925 20.5489 13.0803 20.4703 13.2417Z" fill="#e65f2b"/>
</g>
<g id="Vector_5" filter="url(#filter4_d_6_1020)">
<path d="M16.4689 14.9365C14.7293 14.3065 12.7313 14.4166 11.0021 15.4069C9.27295 16.3972 8.17783 18.0587 7.85808 19.8681C7.70852 19.7673 7.55615 19.6753 7.4013 19.5932C6.42335 19.0745 5.5747 18.2873 4.97944 17.2646C3.28057 14.3456 4.28874 10.6132 7.23126 8.9279C10.1738 7.24264 13.9363 8.24274 15.6353 11.1617C16.2305 12.1845 16.4934 13.3071 16.4571 14.4066C16.4515 14.5806 16.4557 14.7576 16.4689 14.9365Z" fill="#e65f2b"/>
</g>
<g id="Vector_6" filter="url(#filter5_d_6_1020)">
<path d="M13.8538 18.3906C12.0298 18.7078 10.355 19.7941 9.35662 21.5095C8.35828 23.2248 8.2473 25.2068 8.88238 26.9323C8.70209 26.9193 8.52369 26.9151 8.34819 26.9207C7.23985 26.9567 6.10812 26.6959 5.07709 26.1054C2.13457 24.4201 1.12639 20.6877 2.82525 17.7687C4.52411 14.8498 8.28669 13.8497 11.2292 15.535C12.2602 16.1255 13.0538 16.9673 13.5766 17.9374C13.6594 18.091 13.7523 18.2421 13.8538 18.3906Z" fill="#e65f2b"/>
</g>
<g id="Vector_7" filter="url(#filter6_d_6_1020)">
<path d="M13.3302 22.6775C11.9104 23.8569 11.0075 25.6284 11.0075 27.6091C11.0075 29.5898 11.9104 31.3613 13.3302 32.5407C13.1675 32.6188 13.0109 32.7037 12.8618 32.7956C11.92 33.3764 10.8085 33.7119 9.61793 33.7119C6.22022 33.7119 3.46582 30.9796 3.46582 27.6091C3.46582 24.2385 6.22022 21.5062 9.61793 21.5062C10.8085 21.5062 11.92 21.8417 12.8618 22.4226C13.0109 22.5145 13.1675 22.5994 13.3302 22.6775Z" fill="#e65f2b"/>
</g>
<g id="Vector_8" filter="url(#filter7_d_6_1020)">
<path d="M15.0386 26.6482C14.4035 28.3738 14.5145 30.3558 15.5128 32.0711C16.5112 33.7865 18.186 34.8728 20.01 35.19C19.9085 35.3384 19.8157 35.4895 19.7329 35.6432C19.2101 36.6132 18.4165 37.4551 17.3855 38.0456C14.4429 39.7309 10.6804 38.7307 8.98151 35.8118C7.28264 32.8928 8.29083 29.1604 11.2333 27.4751C12.2644 26.8846 13.3961 26.6238 14.5044 26.6598C14.6799 26.6655 14.8583 26.6613 15.0386 26.6482Z" fill="#e65f2b"/>
</g>
<g id="Vector_9" filter="url(#filter8_d_6_1020)">
<path d="M18.5228 29.2412C18.8426 31.0506 19.9377 32.712 21.6669 33.7023C23.396 34.6926 25.3941 34.8027 27.1337 34.1728C27.1205 34.3516 27.1163 34.5285 27.1219 34.7027C27.1582 35.8021 26.8953 36.9248 26.3001 37.9475C24.6011 40.8665 20.8386 41.8666 17.8961 40.1813C14.9535 38.4961 13.9454 34.7637 15.6443 31.8447C16.2395 30.822 17.0882 30.0347 18.0661 29.5161C18.2209 29.434 18.3733 29.3418 18.5228 29.2412Z" fill="#e65f2b"/>
</g>
<g id="Vector_10" filter="url(#filter9_d_6_1020)">
<path d="M22.8442 29.7611C24.0332 31.1695 25.819 32.0651 27.8157 32.0651C29.8124 32.0651 31.5982 31.1695 32.7872 29.7611C32.8658 29.9225 32.9514 30.0778 33.0441 30.2257C33.6296 31.1599 33.9678 32.2626 33.9678 33.4436C33.9678 36.8142 31.2134 39.5465 27.8157 39.5465C24.4179 39.5465 21.6636 36.8142 21.6636 33.4436C21.6636 32.2626 22.0017 31.1599 22.5872 30.2257C22.68 30.0778 22.7655 29.9225 22.8442 29.7611Z" fill="#e65f2b"/>
</g>
<g id="Vector_11" filter="url(#filter10_d_6_1020)">
<path d="M26.8472 28.0657C28.5867 28.6957 30.5847 28.5856 32.3138 27.5953C34.043 26.605 35.1381 24.9436 35.4579 23.1342C35.6074 23.2348 35.7598 23.3269 35.9147 23.409C36.8927 23.9277 37.7413 24.7149 38.3366 25.7377C40.0355 28.6566 39.0272 32.389 36.0848 34.0743C33.1422 35.7596 29.3797 34.7595 27.6808 31.8405C27.0855 30.8177 26.8226 29.6951 26.8588 28.5956C26.8646 28.4216 26.8604 28.2446 26.8472 28.0657Z" fill="#e65f2b"/>
</g>
<g id="Vector_12" filter="url(#filter11_d_6_1020)">
<path d="M33.9597 21.4858C33.9584 21.488 33.9572 21.4901 33.9559 21.4923C32.9577 23.2076 31.2829 24.2939 29.4589 24.6111C29.5603 24.7596 29.6532 24.9107 29.736 25.0642C30.2588 26.0344 31.0524 26.8762 32.0834 27.4667C35.0259 29.152 38.7885 28.1519 40.4874 25.233C41.9438 22.7304 41.4106 19.6301 39.3746 17.7344C38.4802 19.8637 36.4047 21.3825 33.9597 21.4858Z" fill="#e65f2b"/>
</g>
</g>
<g id="Promage">
<path d="M53.9196 31.5827V10.1538H62.5105C67.0923 10.1538 70.1368 12.9396 70.1368 17.2866C70.1368 21.603 67.0923 24.3887 62.5105 24.3887H58.4411V31.5827H53.9196ZM62.0884 13.9804H58.4411V20.5621H62.0884C64.1985 20.5621 65.5549 19.307 65.5549 17.2866C65.5549 15.2355 64.1985 13.9804 62.0884 13.9804Z" fill="#2C1208"/>
<path d="M81.0508 15.8478H81.7743V19.7662H80.0862C77.5542 19.7662 76.5896 21.4805 76.5896 23.8683V31.5827H72.3393V15.8478H76.1977L76.5896 18.2049C77.4336 16.7968 78.6393 15.8478 81.0508 15.8478Z" fill="#2C1208"/>
<path d="M90.7382 31.7664C85.7947 31.7664 82.5693 28.552 82.5693 23.7152C82.5693 18.8784 85.7947 15.6641 90.7382 15.6641C95.6817 15.6641 98.9071 18.8784 98.9071 23.7152C98.9071 28.5827 95.6817 31.7664 90.7382 31.7664ZM90.7382 28.2459C93.1195 28.2459 94.5966 26.3785 94.5966 23.7152C94.5966 21.0519 93.1195 19.1846 90.7382 19.1846C88.3568 19.1846 86.91 21.0519 86.91 23.7152C86.91 26.3785 88.3568 28.2459 90.7382 28.2459Z" fill="#2C1208"/>
<path d="M119.785 15.6641C122.98 15.6641 125.512 17.5009 125.512 22.552V31.5827H121.262V22.7969C121.262 20.4397 120.418 19.2152 118.579 19.2152C116.74 19.2152 115.504 20.5927 115.504 22.9805V31.5827H111.254V22.7969C111.254 20.4397 110.41 19.2152 108.541 19.2152C106.702 19.2152 105.497 20.654 105.497 23.0111V31.5827H101.246V15.8478H104.954L105.346 17.807C106.28 16.5825 107.637 15.6947 109.898 15.6641C111.797 15.6335 113.575 16.3376 114.54 18.3274C115.625 16.6437 117.434 15.6641 119.785 15.6641Z" fill="#2C1208"/>
<path d="M142.952 27.9398H143.434V31.5827H141.264C139.063 31.5827 138.37 30.5113 138.4 29.0112C137.315 30.7562 135.747 31.7664 133.336 31.7664C129.99 31.7664 127.578 30.1439 127.578 27.1439C127.578 23.8071 130.05 21.9091 134.692 21.9091H137.767V21.1438C137.767 19.7356 136.772 18.8172 134.994 18.8172C133.336 18.8172 132.221 19.5825 132.04 20.7458H127.94C128.242 17.6845 131.015 15.6641 135.114 15.6641C139.455 15.6641 141.957 17.6233 141.957 21.3887V26.9602C141.957 27.7867 142.289 27.9398 142.952 27.9398ZM137.767 25.0928V24.7867H134.662C132.884 24.7867 131.859 25.5214 131.859 26.8377C131.859 27.9398 132.733 28.6439 134.15 28.6439C136.38 28.6439 137.737 27.2357 137.767 25.0928Z" fill="#2C1208"/>
<path d="M156.472 18.0213L156.834 15.8478H160.572V31.1235C160.572 35.0113 158.221 37.8889 152.282 37.8889C147.972 37.8889 145.018 35.8991 144.807 32.2562H149.087C149.479 33.7562 150.655 34.6134 152.614 34.6134C154.995 34.6134 156.412 33.4195 156.412 30.9704V29.3174C155.387 30.6337 153.85 31.4909 151.68 31.4909C147.52 31.5215 144.475 28.4296 144.475 23.5622C144.475 18.756 147.52 15.6335 151.649 15.6335C153.88 15.6335 155.448 16.6437 156.472 18.0213ZM152.614 28.0316C154.935 28.0316 156.382 26.2255 156.382 23.6234C156.382 20.9907 154.935 19.1233 152.614 19.1233C150.293 19.1233 148.816 20.9601 148.816 23.5928C148.816 26.2255 150.293 28.0316 152.614 28.0316Z" fill="#2C1208"/>
<path d="M171.192 31.7664C166.037 31.7664 162.932 28.6133 162.932 23.7458C162.932 18.8478 166.097 15.6641 170.89 15.6641C175.532 15.6641 178.667 18.6029 178.728 23.2254C178.728 23.6846 178.697 24.205 178.607 24.6948H167.363V24.9091C167.454 27.1439 168.871 28.4908 171.011 28.4908C172.729 28.4908 173.935 27.7255 174.296 26.2561H178.486C178.004 29.3174 175.321 31.7664 171.192 31.7664ZM167.454 21.8785H174.447C174.146 19.9499 172.85 18.8784 170.92 18.8784C169.082 18.8784 167.695 20.0111 167.454 21.8785Z" fill="#2C1208"/>
</g>
</g>
<defs>
<filter id="filter0_d_6_1020" x="27.983" y="7.28552" width="13.8644" height="16.2057" filterUnits="userSpaceOnUse" color-interpolation-filters="sRGB">
<feFlood flood-opacity="0" result="BackgroundImageFix"/>
<feColorMatrix in="SourceAlpha" type="matrix" values="0 0 0 0 0 0 0 0 0 0 0 0 0 0 0 0 0 0 127 0" result="hardAlpha"/>
<feOffset/>
<feGaussianBlur stdDeviation="1"/>
<feComposite in2="hardAlpha" operator="out"/>
<feColorMatrix type="matrix" values="0 0 0 0 1 0 0 0 0 1 0 0 0 0 1 0 0 0 0.25 0"/>
<feBlend mode="normal" in2="BackgroundImageFix" result="effect1_dropShadow_6_1020"/>
<feBlend mode="normal" in="SourceGraphic" in2="effect1_dropShadow_6_1020" result="shape"/>
</filter>
<filter id="filter1_d_6_1020" x="21.3027" y="2.13477" width="15.8538" height="16.2159" filterUnits="userSpaceOnUse" color-interpolation-filters="sRGB">
<feFlood flood-opacity="0" result="BackgroundImageFix"/>
<feColorMatrix in="SourceAlpha" type="matrix" values="0 0 0 0 0 0 0 0 0 0 0 0 0 0 0 0 0 0 127 0" result="hardAlpha"/>
<feOffset/>
<feGaussianBlur stdDeviation="1"/>
<feComposite in2="hardAlpha" operator="out"/>
<feColorMatrix type="matrix" values="0 0 0 0 1 0 0 0 0 1 0 0 0 0 1 0 0 0 0.25 0"/>
<feBlend mode="normal" in2="BackgroundImageFix" result="effect1_dropShadow_6_1020"/>
<feBlend mode="normal" in="SourceGraphic" in2="effect1_dropShadow_6_1020" result="shape"/>
</filter>
<filter id="filter2_d_6_1020" x="14.1825" y="0" width="16.3147" height="15.7588" filterUnits="userSpaceOnUse" color-interpolation-filters="sRGB">
<feFlood flood-opacity="0" result="BackgroundImageFix"/>
<feColorMatrix in="SourceAlpha" type="matrix" values="0 0 0 0 0 0 0 0 0 0 0 0 0 0 0 0 0 0 127 0" result="hardAlpha"/>
<feOffset/>
<feGaussianBlur stdDeviation="1"/>
<feComposite in2="hardAlpha" operator="out"/>
<feColorMatrix type="matrix" values="0 0 0 0 1 0 0 0 0 1 0 0 0 0 1 0 0 0 0.25 0"/>
<feBlend mode="normal" in2="BackgroundImageFix" result="effect1_dropShadow_6_1020"/>
<feBlend mode="normal" in="SourceGraphic" in2="effect1_dropShadow_6_1020" result="shape"/>
</filter>
<filter id="filter3_d_6_1020" x="7.34668" y="1.4563" width="16.3042" height="13.7854" filterUnits="userSpaceOnUse" color-interpolation-filters="sRGB">
<feFlood flood-opacity="0" result="BackgroundImageFix"/>
<feColorMatrix in="SourceAlpha" type="matrix" values="0 0 0 0 0 0 0 0 0 0 0 0 0 0 0 0 0 0 127 0" result="hardAlpha"/>
<feOffset/>
<feGaussianBlur stdDeviation="1"/>
<feComposite in2="hardAlpha" operator="out"/>
<feColorMatrix type="matrix" values="0 0 0 0 1 0 0 0 0 1 0 0 0 0 1 0 0 0 0.25 0"/>
<feBlend mode="normal" in2="BackgroundImageFix" result="effect1_dropShadow_6_1020"/>
<feBlend mode="normal" in="SourceGraphic" in2="effect1_dropShadow_6_1020" result="shape"/>
</filter>
<filter id="filter4_d_6_1020" x="2.15417" y="6.10925" width="16.3147" height="15.7588" filterUnits="userSpaceOnUse" color-interpolation-filters="sRGB">
<feFlood flood-opacity="0" result="BackgroundImageFix"/>
<feColorMatrix in="SourceAlpha" type="matrix" values="0 0 0 0 0 0 0 0 0 0 0 0 0 0 0 0 0 0 127 0" result="hardAlpha"/>
<feOffset/>
<feGaussianBlur stdDeviation="1"/>
<feComposite in2="hardAlpha" operator="out"/>
<feColorMatrix type="matrix" values="0 0 0 0 1 0 0 0 0 1 0 0 0 0 1 0 0 0 0.25 0"/>
<feBlend mode="normal" in2="BackgroundImageFix" result="effect1_dropShadow_6_1020"/>
<feBlend mode="normal" in="SourceGraphic" in2="effect1_dropShadow_6_1020" result="shape"/>
</filter>
<filter id="filter5_d_6_1020" x="0" y="12.7163" width="15.8538" height="16.2161" filterUnits="userSpaceOnUse" color-interpolation-filters="sRGB">
<feFlood flood-opacity="0" result="BackgroundImageFix"/>
<feColorMatrix in="SourceAlpha" type="matrix" values="0 0 0 0 0 0 0 0 0 0 0 0 0 0 0 0 0 0 127 0" result="hardAlpha"/>
<feOffset/>
<feGaussianBlur stdDeviation="1"/>
<feComposite in2="hardAlpha" operator="out"/>
<feColorMatrix type="matrix" values="0 0 0 0 1 0 0 0 0 1 0 0 0 0 1 0 0 0 0.25 0"/>
<feBlend mode="normal" in2="BackgroundImageFix" result="effect1_dropShadow_6_1020"/>
<feBlend mode="normal" in="SourceGraphic" in2="effect1_dropShadow_6_1020" result="shape"/>
</filter>
<filter id="filter6_d_6_1020" x="1.46582" y="19.5062" width="13.8644" height="16.2057" filterUnits="userSpaceOnUse" color-interpolation-filters="sRGB">
<feFlood flood-opacity="0" result="BackgroundImageFix"/>
<feColorMatrix in="SourceAlpha" type="matrix" values="0 0 0 0 0 0 0 0 0 0 0 0 0 0 0 0 0 0 127 0" result="hardAlpha"/>
<feOffset/>
<feGaussianBlur stdDeviation="1"/>
<feComposite in2="hardAlpha" operator="out"/>
<feColorMatrix type="matrix" values="0 0 0 0 1 0 0 0 0 1 0 0 0 0 1 0 0 0 0.25 0"/>
<feBlend mode="normal" in2="BackgroundImageFix" result="effect1_dropShadow_6_1020"/>
<feBlend mode="normal" in="SourceGraphic" in2="effect1_dropShadow_6_1020" result="shape"/>
</filter>
<filter id="filter7_d_6_1020" x="6.15625" y="24.6482" width="15.8538" height="16.2161" filterUnits="userSpaceOnUse" color-interpolation-filters="sRGB">
<feFlood flood-opacity="0" result="BackgroundImageFix"/>
<feColorMatrix in="SourceAlpha" type="matrix" values="0 0 0 0 0 0 0 0 0 0 0 0 0 0 0 0 0 0 127 0" result="hardAlpha"/>
<feOffset/>
<feGaussianBlur stdDeviation="1"/>
<feComposite in2="hardAlpha" operator="out"/>
<feColorMatrix type="matrix" values="0 0 0 0 1 0 0 0 0 1 0 0 0 0 1 0 0 0 0.25 0"/>
<feBlend mode="normal" in2="BackgroundImageFix" result="effect1_dropShadow_6_1020"/>
<feBlend mode="normal" in="SourceGraphic" in2="effect1_dropShadow_6_1020" result="shape"/>
</filter>
<filter id="filter8_d_6_1020" x="12.819" y="27.2412" width="16.3147" height="15.7588" filterUnits="userSpaceOnUse" color-interpolation-filters="sRGB">
<feFlood flood-opacity="0" result="BackgroundImageFix"/>
<feColorMatrix in="SourceAlpha" type="matrix" values="0 0 0 0 0 0 0 0 0 0 0 0 0 0 0 0 0 0 127 0" result="hardAlpha"/>
<feOffset/>
<feGaussianBlur stdDeviation="1"/>
<feComposite in2="hardAlpha" operator="out"/>
<feColorMatrix type="matrix" values="0 0 0 0 1 0 0 0 0 1 0 0 0 0 1 0 0 0 0.25 0"/>
<feBlend mode="normal" in2="BackgroundImageFix" result="effect1_dropShadow_6_1020"/>
<feBlend mode="normal" in="SourceGraphic" in2="effect1_dropShadow_6_1020" result="shape"/>
</filter>
<filter id="filter9_d_6_1020" x="19.6636" y="27.7611" width="16.3042" height="13.7854" filterUnits="userSpaceOnUse" color-interpolation-filters="sRGB">
<feFlood flood-opacity="0" result="BackgroundImageFix"/>
<feColorMatrix in="SourceAlpha" type="matrix" values="0 0 0 0 0 0 0 0 0 0 0 0 0 0 0 0 0 0 127 0" result="hardAlpha"/>
<feOffset/>
<feGaussianBlur stdDeviation="1"/>
<feComposite in2="hardAlpha" operator="out"/>
<feColorMatrix type="matrix" values="0 0 0 0 1 0 0 0 0 1 0 0 0 0 1 0 0 0 0.25 0"/>
<feBlend mode="normal" in2="BackgroundImageFix" result="effect1_dropShadow_6_1020"/>
<feBlend mode="normal" in="SourceGraphic" in2="effect1_dropShadow_6_1020" result="shape"/>
</filter>
<filter id="filter10_d_6_1020" x="24.8472" y="21.1342" width="16.3147" height="15.7588" filterUnits="userSpaceOnUse" color-interpolation-filters="sRGB">
<feFlood flood-opacity="0" result="BackgroundImageFix"/>
<feColorMatrix in="SourceAlpha" type="matrix" values="0 0 0 0 0 0 0 0 0 0 0 0 0 0 0 0 0 0 127 0" result="hardAlpha"/>
<feOffset/>
<feGaussianBlur stdDeviation="1"/>
<feComposite in2="hardAlpha" operator="out"/>
<feColorMatrix type="matrix" values="0 0 0 0 1 0 0 0 0 1 0 0 0 0 1 0 0 0 0.25 0"/>
<feBlend mode="normal" in2="BackgroundImageFix" result="effect1_dropShadow_6_1020"/>
<feBlend mode="normal" in="SourceGraphic" in2="effect1_dropShadow_6_1020" result="shape"/>
</filter>
<filter id="filter11_d_6_1020" x="27.4589" y="15.7344" width="15.8538" height="14.551" filterUnits="userSpaceOnUse" color-interpolation-filters="sRGB">
<feFlood flood-opacity="0" result="BackgroundImageFix"/>
<feColorMatrix in="SourceAlpha" type="matrix" values="0 0 0 0 0 0 0 0 0 0 0 0 0 0 0 0 0 0 127 0" result="hardAlpha"/>
<feOffset/>
<feGaussianBlur stdDeviation="1"/>
<feComposite in2="hardAlpha" operator="out"/>
<feColorMatrix type="matrix" values="0 0 0 0 1 0 0 0 0 1 0 0 0 0 1 0 0 0 0.25 0"/>
<feBlend mode="normal" in2="BackgroundImageFix" result="effect1_dropShadow_6_1020"/>
<feBlend mode="normal" in="SourceGraphic" in2="effect1_dropShadow_6_1020" result="shape"/>
</filter>
</defs>
</svg>
